<?xml version="1.0" encoding="UTF-8" standalone="no"?>
<svg
   xmlns:dc="http://purl.org/dc/elements/1.1/"
   xmlns:cc="http://creativecommons.org/ns#"
   xmlns:rdf="http://www.w3.org/1999/02/22-rdf-syntax-ns#"
   xmlns:svg="http://www.w3.org/2000/svg"
   xmlns="http://www.w3.org/2000/svg"
   height="66"
   width="66"
   id="svg32"
   xml:space="preserve"
   enable-background="new 0 0 66 66"
   viewBox="0 0 66 66"
   y="0px"
   x="0px"
   version="1.1"><metadata
     id="metadata38"><rdf:RDF><cc:Work
         rdf:about=""><dc:format>image/svg+xml</dc:format><dc:type
           rdf:resource="http://purl.org/dc/dcmitype/StillImage" /><dc:title></dc:title></cc:Work></rdf:RDF></metadata><defs
     id="defs36" /><g
     style="fill:#32b0ff;fill-opacity:1"
     transform="translate(0,-2.0761763e-4)"
     id="g26"><g
       style="fill:#004872;fill-opacity:1"
       id="g8"><g
         style="fill:#004872;fill-opacity:1"
         id="g6"><path
           style="fill:#004872;fill-opacity:1"
           id="path2"
           d="m 21.64,56.841 c 0,1.11 -0.9,2 -2,2 -1.1,0 -2,-0.89 -2,-2 0,-1.1 0.9,-2 2,-2 1.1,0 2,0.9 2,2 z" /><path
           style="fill:#004872;fill-opacity:1"
           id="path4"
           d="m 39.62,62.071 h -4.3 c -0.4,-5.12 -3.24,-9.68 -7.74,-12.31 -0.15,-0.09 -0.33,-0.14 -0.51,-0.14 -15.566,0.051 -14.897,-0.126 -15.37,0.14 -4.5,2.63 -7.34,7.19 -7.74,12.31 H 2 c -0.55,0 -1,0.44 -1,1 0,0.55 0.45,1 1,1 h 37.62 c 0.55,0 1,-0.45 1,-1 0,-0.56 -0.45,-1 -1,-1 z m -19.98,-1.23 c -2.2,0 -4,-1.79 -4,-4 0,-2.2 1.8,-4 4,-4 2.21,0 4,1.8 4,4 0,2.21 -1.79,4 -4,4 z" /></g></g><g
       style="fill:#32b0ff;fill-opacity:1"
       id="g12"><path
         style="fill:#32b0ff;fill-opacity:1"
         id="path10"
         d="m 26.02,34.881 v 12.74 H 13.27 v -12.74 c 0,-3.52 2.86,-6.38 6.37,-6.38 3.52,0 6.38,2.86 6.38,6.38 z" /></g><g
       style="fill:#32b0ff;fill-opacity:1"
       id="g16"><path
         style="fill:#32b0ff;fill-opacity:1"
         id="path14"
         d="m 37.33,8.521 -10.55,21.99 c -1.47,-2.4 -4.12,-4.01 -7.14,-4.01 -0.25,0 -0.49,0.01 -0.73,0.03 L 29.66,4.211 c 1.26,-2.22 3.97,-2.89 6.03,-1.7 2.1,1.18 2.86,3.89 1.64,6.01 z" /></g><g
       style="fill:#32b0ff;fill-opacity:1"
       id="g20"><path
         style="fill:#32b0ff;fill-opacity:1"
         id="path18"
         d="m 53.53,2.641 c -0.12,0.32 -0.18,0.66 -0.18,1.01 v 8.21 H 37.94 l 1.16,-2.41 c 0.83,-1.48 1.03,-3.18 0.58,-4.82 -0.2,-0.72 -0.51,-1.4 -0.94,-1.99 z" /></g><g
       style="fill:#32b0ff;fill-opacity:1"
       id="g24"><path
         style="fill:#32b0ff;fill-opacity:1"
         id="path22"
         d="m 65,32.881 c 0,0.55 -0.45,1 -1,1 -0.55,0 -1,-0.45 -1,-1 0,-1.98 -1.61,-3.59 -3.59,-3.59 -1.98,0 -3.59,1.61 -3.59,3.59 0,0.55 -0.44,1 -1,1 -0.55,0 -1,-0.45 -1,-1 0,-2.74 1.98,-5.03 4.59,-5.5 v -2.07 h -2.06 c -0.55,0 -1,-0.45 -1,-1 V 3.651 c 0,-0.56 0.45,-1 1,-1 h 3.92 c 1.76,0 3.2,1.43 3.2,3.2 v 18.46 c 0,0.55 -0.45,1 -1,1 h -2.06 v 2.07 c 2.61,0.47 4.59,2.76 4.59,5.5 z" /></g></g></svg>